# xmcd CD database file
#
# Track frame offsets:
#	150
#	28555
#	47869
#	61804
#	83156
#	107224
#	121897
#	146046
#	160005
#	192216
#	207223
#	237976
#
# Disc length: 3336 seconds
#
# Revision: 1
# Processed by: cddbd v1.5.2PL0 Copyright (c) Steve Scherf et al.
# Submitted via: CDex 1.51
#
DISCID=a00d060c
DTITLE=Joseph Haydn - Quatuors à cordes Op.33, N° 2, 3, 5 ''Russes''
DYEAR=1900
DGENRE=Classique
TTITLE0=Quatuor à cordes Op.33, N°5 en sol majeur - I. Vivace assai
TTITLE1=Quatuor à cordes Op.33, N°5 en sol majeur - II. Largo e cantabile
TTITLE2=Quatuor à cordes Op.33, N°5 en sol majeur - III. Scherzo - Allegretto
TTITLE3=Quatuor à cordes Op.33, N°5 en sol majeur - IV. Finale - Allegretto
TTITLE4=Quatuor à cordes Op.33, N°2 en mi majeur - I. Allegretto moderato
TTITLE5=Quatuor à cordes Op.33, N°2 en mi majeur - II. Scherzo - Allegro
TTITLE6=Quatuor à cordes Op.33, N°2 en mi majeur - III. Largo e sostenuto
TTITLE7=Quatuor à cordes Op.33, N°2 en mi majeur - IV. Finale - Presto
TTITLE8=Quatuor à cordes Op.33, N°3 en ut majeur - I. Allegro moderato
TTITLE9=Quatuor à cordes Op.33, N°3 en ut majeur - II. Scherzo - Allegretto
TTITLE10=Quatuor à cordes Op.33, N°3 en ut majeur - III. Adagio ma non troppo
TTITLE11=Quatuor à cordes Op.33, N°3 en ut majeur - IV. Finale - Rondo - Presto
EXTD=
EXTT0=
EXTT1=
EXTT2=
EXTT3=
EXTT4=
EXTT5=
EXTT6=
EXTT7=
EXTT8=
EXTT9=
EXTT10=
EXTT11=
PLAYORDER=
